<svg xmlns="http://www.w3.org/2000/svg" width="64" height="64" viewBox="0 0 64 64">
  <defs>
    <linearGradient id="g" x1="0" y1="0" x2="1" y2="1">
      <stop offset="0" stop-color="#1e40af" />
      <stop offset="1" stop-color="#d4af37" />
    </linearGradient>
  </defs>
  <rect width="64" height="64" rx="12" fill="#0b1220"/>
  <path d="M18,22 C18,15 26,12 32,12 C40,12 46,16 46,22 C46,27 42,30 36,32 L30,34 C26,35 24,37 24,40 C24,44 28,46 32,46 C36,46 40,44 42,42 L46,46 C42,50 37,52 32,52 C24,52 18,47 18,40 C18,34 22,30 28,28 L34,26 C38,25 40,23 40,21 C40,18 36,16 32,16 C27,16 22,18 20,20Z" fill="url(#g)"/>
</svg>